<svg width="32" height="32" viewBox="0 0 32 32" fill="none" xmlns="http://www.w3.org/2000/svg">
  <defs>
    <linearGradient id="favGrad" x1="0%" y1="0%" x2="100%" y2="100%">
      <stop offset="0%" style="stop-color:#8b5cf6"/>
      <stop offset="50%" style="stop-color:#6366f1"/>
      <stop offset="100%" style="stop-color:#06b6d4"/>
    </linearGradient>
    <linearGradient id="favFill" x1="0%" y1="0%" x2="100%" y2="100%">
      <stop offset="0%" style="stop-color:#8b5cf6" stop-opacity="0.3"/>
      <stop offset="100%" style="stop-color:#06b6d4" stop-opacity="0.15"/>
    </linearGradient>
  </defs>

  <!-- Hexagon fill -->
  <path d="M16 2 L28 9 L28 23 L16 30 L4 23 L4 9 Z" fill="url(#favFill)"/>

  <!-- Outer hexagon -->
  <path d="M16 2 L28 9 L28 23 L16 30 L4 23 L4 9 Z" stroke="url(#favGrad)" stroke-width="1.5" fill="none" stroke-linejoin="round"/>

  <!-- Inner hexagon -->
  <path d="M16 6 L24 10 L24 22 L16 26 L8 22 L8 10 Z" stroke="url(#favGrad)" stroke-width="1" fill="none" stroke-linejoin="round" opacity="0.5"/>

  <!-- Main V -->
  <path d="M9 10 L16 24 L23 10" stroke="url(#favGrad)" stroke-width="2.5" stroke-linecap="round" stroke-linejoin="round" fill="none"/>

  <!-- Accent V -->
  <path d="M11 13 L16 21 L21 13" stroke="url(#favGrad)" stroke-width="1.2" stroke-linecap="round" stroke-linejoin="round" fill="none" opacity="0.6"/>

  <!-- Nodes -->
  <circle cx="9" cy="10" r="2" fill="#8b5cf6"/>
  <circle cx="23" cy="10" r="2" fill="#06b6d4"/>
  <circle cx="16" cy="24" r="2" fill="url(#favGrad)"/>

  <!-- Particles -->
  <circle cx="7" cy="16" r="1" fill="#8b5cf6" opacity="0.7"/>
  <circle cx="25" cy="16" r="1" fill="#06b6d4" opacity="0.7"/>
  <circle cx="16" cy="14" r="1" fill="url(#favGrad)" opacity="0.6"/>
</svg>
